<?xml version="1.0" encoding="utf-8"?>
<!-- Generator: Adobe Illustrator 19.0.0, SVG Export Plug-In . SVG Version: 6.00 Build 0)  -->
<svg version="1.1" xmlns="http://www.w3.org/2000/svg" xmlns:xlink="http://www.w3.org/1999/xlink" x="0px" y="0px"
	 viewBox="0 0 552.1 418.5" style="enable-background:new 0 0 552.1 418.5;" xml:space="preserve">
<style type="text/css">
	.st0{display:none;fill:#7EBCBC;}
	.st1{opacity:0.19;}
	.st2{fill:#828282;}
	.st3{fill:#FFFABD;}
	.st4{fill:#D6D6D6;}
	.st5{fill:#FFFFFF;}
	.st6{fill:none;stroke:#969696;stroke-width:1.5802;stroke-miterlimit:10;}
	.st7{fill:#A59C5B;}
	.st8{fill:none;stroke:#3F3F3F;stroke-width:1.5802;stroke-miterlimit:10;}
	.st9{fill:none;stroke:#A59C5B;stroke-width:4.7405;stroke-miterlimit:10;}
	.st10{display:none;}
	.st11{display:inline;}
	.st12{fill:none;stroke:#FFFABD;stroke-width:1.0296;stroke-miterlimit:10;}
	.st13{fill:none;}
	.st14{font-family:'HelveticaNeue-UltraLigCond';}
	.st15{font-size:24px;}
	.st16{fill:#48577C;}
	.st17{font-family:'MoonFlower';}
	.st18{font-size:40px;}
</style>
<g id="background_1_">
	<g id="background">
		<rect id="XMLID_52_" x="-186.1" y="-381.5" class="st0" width="1280" height="800"/>
		<g id="XMLID_2_" class="st1">
			<path id="XMLID_930_" class="st2" d="M238.6,466.4c1,0.2,38.7,9.3,78.4-1C274.1,524.9,239.3,467.6,238.6,466.4z"/>
			<path id="XMLID_804_" class="st3" d="M248.2,336.2l-0.9-5.4c0,0-2.6-20.8-16.6-15.8C218.2,319.4,229.6,340.1,248.2,336.2z
				 M358.8,361.4l-42.1,66.3l-78.4,1L195,367.6c-13.4-17.1-21.5-38.5-21.6-61.9c-0.4-56,44.7-101.6,100.7-102
				c56-0.4,101.6,44.7,102,100.7C376.1,325.5,369.8,345.1,358.8,361.4z M305.4,336.4c0.4,0.1,0.6,0.1,0.6,0.1s24.4-0.8,17-19.7
				C323,316.8,311.8,304.8,305.4,336.4z M275.4,321c13.8-10.9,21.3-23.6,3.4-32c0,0-20.2-1.1-11.5,20.2
				C269.2,313.8,272,317.7,275.4,321z"/>
			<path id="XMLID_800_" class="st3" d="M323,316.8c7.5,18.9-17,19.7-17,19.7s-0.2,0-0.6-0.1C311.8,304.8,323,316.8,323,316.8z"/>
			<path id="XMLID_795_" class="st4" d="M316.9,446.6l0.1,18.8c-39.7,10.2-77.4,1.2-78.4,1c0,0,0,0,0,0l-0.1-19.3
				C238.4,447.1,277.1,457.9,316.9,446.6z"/>
			<path id="XMLID_794_" class="st4" d="M316.7,427.8l0.1,18.8c-39.7,11.3-78.4,0.5-78.4,0.5l-0.1-18.3
				C238.3,428.7,280.3,435.2,316.7,427.8z"/>
			<path id="XMLID_793_" class="st5" d="M238.3,428.7l78.4-1C280.3,435.2,238.3,428.7,238.3,428.7z"/>
			<path id="XMLID_784_" class="st3" d="M278.8,289c17.9,8.4,10.4,21.1-3.4,32c-3.3-3.2-6.2-7.1-8.1-11.7
				C258.6,287.9,278.8,289,278.8,289z"/>
			<path id="XMLID_775_" class="st3" d="M247.3,330.8l0.9,5.4c-18.6,3.9-30.1-16.8-17.5-21.2C244.7,310,247.3,330.8,247.3,330.8z"/>
			<path id="XMLID_688_" class="st6" d="M238.6,466.4c1,0.2,38.7,9.3,78.4-1l-0.1-18.8l-0.1-18.8"/>
			<polyline id="XMLID_687_" class="st6" points="238.3,428.7 238.4,447.1 238.6,466.4 			"/>
			<g id="XMLID_686_">
				<path id="XMLID_16_" class="st7" d="M195.1,367.5l22.2,30.2l11.1,15.1l11,15.1l-0.9-0.6c3.2,0.4,6.5,0.8,9.7,1
					c3.3,0.3,6.5,0.5,9.8,0.7l4.9,0.2c1.6,0.1,3.3,0.1,4.9,0.1c1.6,0.1,3.3,0.1,4.9,0.1c1.6,0,3.3,0,4.9,0l4.9-0.1l4.9-0.2
					c1.6-0.1,3.2-0.2,4.9-0.3c1.6-0.1,3.2-0.2,4.9-0.4l4.8-0.6c1.6-0.2,3.2-0.5,4.8-0.7l2.4-0.4c0.8-0.1,1.6-0.3,2.4-0.4l4.8-0.9
					l-1.6,1.1c1.7-2.8,3.5-5.6,5.2-8.3c1.7-2.8,3.6-5.5,5.3-8.3l5.4-8.2c1.8-2.7,3.6-5.5,5.5-8.2c1.8-2.7,3.7-5.4,5.5-8.1
					c1.9-2.7,3.7-5.4,5.6-8.1c3.7-5.4,7.5-10.7,11.4-16l0.4,0.3c-3.1,5.8-6.3,11.5-9.6,17.2c-1.6,2.8-3.3,5.7-4.9,8.5
					c-1.6,2.8-3.3,5.6-5,8.5c-1.7,2.8-3.4,5.6-5.1,8.4l-5.1,8.4c-1.7,2.8-3.4,5.6-5.2,8.3c-1.7,2.8-3.5,5.5-5.3,8.3l-0.6,0.9l-1,0.2
					l-4.9,0.8c-1.6,0.3-3.3,0.5-4.9,0.7c-1.7,0.2-3.3,0.4-5,0.6l-5,0.4c-1.7,0.2-3.3,0.2-5,0.3c-1.7,0.1-3.3,0.2-5,0.2l-5,0.1l-5,0
					c-1.7,0-3.3-0.1-5-0.1c-1.7,0-3.3-0.1-5-0.2c-1.6-0.1-3.3-0.1-4.9-0.3l-4.9-0.3c-3.3-0.3-6.6-0.6-9.9-0.9
					c-3.3-0.4-6.5-0.8-9.8-1.3l-0.6-0.1l-0.3-0.5l-10.6-15.4l-10.6-15.5l-21.2-30.9L195.1,367.5z"/>
			</g>
			<path id="XMLID_685_" class="st6" d="M238.4,447.1c0,0,38.7,10.8,78.4-0.5"/>
			<path id="XMLID_684_" class="st8" d="M238.6,466.4C238.6,466.4,238.6,466.4,238.6,466.4c0.7,1.2,35.6,58.5,78.4-1"/>
			<path id="XMLID_683_" class="st9" d="M305.4,336.4c-0.6,3.2-1.3,6.9-1.8,11.1c-5.8,45.3-11.2,75.5-11.2,75.5"/>
			<path id="XMLID_682_" class="st9" d="M305.4,336.4c0.4,0.1,0.6,0.1,0.6,0.1s24.4-0.8,17-19.7C323,316.8,311.8,304.8,305.4,336.4z
				"/>
			<path id="XMLID_681_" class="st9" d="M275.4,321c10.9,10.7,26.8,14.7,30,15.4"/>
			<path id="XMLID_680_" class="st9" d="M275.4,321c13.8-10.9,21.3-23.6,3.4-32c0,0-20.2-1.1-11.5,20.2
				C269.2,313.8,272,317.7,275.4,321z"/>
			<path id="XMLID_679_" class="st9" d="M248.2,336.2c2.2-0.5,4.6-1.3,7-2.5c6.9-3.5,14.1-7.9,20.1-12.7"/>
			<path id="XMLID_678_" class="st9" d="M248.2,336.2l-0.9-5.4c0,0-2.6-20.8-16.6-15.8C218.2,319.4,229.6,340.1,248.2,336.2z"/>
			<line id="XMLID_677_" class="st9" x1="263.1" y1="423.2" x2="248.2" y2="336.2"/>
			<g id="XMLID_676_">
				<path id="XMLID_14_" class="st7" d="M195.2,368.3c0,0-0.1-0.1-0.2-0.3c-0.1-0.2-0.3-0.4-0.6-0.8c-0.5-0.7-1.3-1.7-2.3-3
					c-1.9-2.7-4.7-6.6-7.6-12.1c-1.5-2.7-2.9-5.8-4.4-9.2c-1.4-3.4-2.8-7.2-3.9-11.3c-1.1-4.1-2.1-8.6-2.8-13.4
					c-0.7-4.8-1-9.8-0.9-15.1c0-2.6,0.2-5.3,0.4-8.1c0.2-1.4,0.3-2.7,0.5-4.1c0.1-1.4,0.4-2.8,0.6-4.2c1-5.6,2.4-11.4,4.5-17.1
					c4-11.5,10.6-22.8,19.3-32.8c8.7-10,19.8-18.6,32.4-24.8c12.6-6.1,26.7-9.7,40.9-10.3l2.7-0.1c1,0,1.8,0,2.7,0l2.6,0
					c0.9,0,1.8,0.1,2.7,0.2l2.7,0.2l2.7,0.3l2.7,0.3l2.6,0.4c7,1.2,13.9,3,20.4,5.6c13.1,5.1,25,12.8,34.6,22.2
					c9.5,9.4,17,20.4,21.8,31.7c2.5,5.6,4.3,11.3,5.7,16.9c1.4,5.6,2.1,11.2,2.5,16.5c0.8,10.7-0.3,20.5-2.1,28.9
					c-1.8,8.5-4.5,15.5-7.1,21.1c-2.7,5.6-5.2,9.7-7,12.5c-0.9,1.4-1.7,2.4-2.1,3.1c-0.5,0.7-0.8,1-0.8,1l-0.4-0.3
					c0,0,0.2-0.4,0.7-1.1c0.4-0.7,1.1-1.8,1.9-3.2c1.6-2.9,3.9-7.1,6.2-12.7c1.1-2.8,2.3-6,3.3-9.5c1-3.5,2-7.3,2.7-11.5
					c0.7-4.1,1.2-8.6,1.4-13.3c0-1.2,0.1-2.3,0.1-3.6c0-1.2,0-2.5-0.1-3.7c-0.1-1.2-0.1-2.5-0.2-3.7c0-1.3-0.2-2.5-0.3-3.8
					c-1-10.2-3.8-21.2-8.7-31.8c-2.5-5.3-5.4-10.6-8.9-15.7c-3.5-5.1-7.6-9.9-12.2-14.4c-9.1-9-20.3-16.5-32.8-21.6
					c-6.2-2.5-12.8-4.4-19.5-5.6l-2.5-0.5l-2.5-0.3l-2.5-0.3l-2.5-0.2c-0.8-0.1-1.7-0.1-2.5-0.2l-2.6-0.1c-0.8,0-1.8-0.1-2.6-0.1
					l-2.6,0.1c-13.7,0.4-27.4,3.6-39.6,9.4c-12.3,5.8-23.1,14-31.7,23.6c-8.6,9.6-15.1,20.6-19.3,31.7c-2.1,5.6-3.6,11.2-4.7,16.7
					c-0.2,1.4-0.5,2.7-0.7,4.1c-0.2,1.4-0.4,2.7-0.5,4.1c-0.2,2.7-0.5,5.3-0.5,7.9c-0.1,5.2,0.1,10.2,0.7,14.9
					c0.6,4.7,1.5,9.1,2.5,13.2c1.1,4.1,2.4,7.9,3.7,11.3c1.4,3.4,2.7,6.5,4.2,9.2c2.8,5.4,5.5,9.4,7.3,12.1c1,1.3,1.7,2.3,2.2,3
					c0.3,0.3,0.4,0.6,0.6,0.8c0.1,0.2,0.2,0.3,0.2,0.3L195.2,368.3z"/>
			</g>
			<g id="XMLID_555_">
				<polygon id="XMLID_12_" class="st3" points="120.2,311.4 25.2,222.4 23.8,221.1 25.7,221.2 119.8,229.7 118.7,231.2 70.8,122.6 
					68.8,118 72.8,121 185.5,202.9 182.8,204.7 152.5,72.2 150.8,65.1 155.6,70.5 234.3,160 231,160.9 263.3,30.3 264.9,24.1 
					267.2,30 312.5,148.3 309.3,147.8 377.8,64.4 381.1,60.3 381,65.6 376.8,181.8 374.1,180.5 457,109.1 461,105.6 459.2,110.6 
					416.9,224.5 415.7,223.1 508,201.6 509.8,201.2 508.6,202.7 425.9,309.4 507.6,201.8 508.3,202.9 416.2,225.2 414.3,225.6 
					414.9,223.8 456.6,109.6 458.8,111.2 376.3,183 373.4,185.5 373.5,181.7 377.4,65.5 380.5,66.7 312.2,150.2 310.1,152.7 
					309,149.7 263.4,31.5 267.2,31.2 234.8,161.8 233.9,165.4 231.4,162.6 152.9,73 156,71.3 186.2,203.9 187.2,208.4 183.5,205.7 
					71.2,123.1 73.2,121.5 120.6,230.4 121.3,232 119.6,231.8 25.6,222.5 26.1,221.4 				"/>
			</g>
		</g>
	</g>
</g>
<g id="photo_1_" class="st10">
	<g id="photo" class="st11">
		<rect id="XMLID_3_" x="600.9" y="-378.1" class="st12" width="492" height="796.6"/>
		<rect id="XMLID_5_" x="772.9" y="-32.5" class="st13" width="266" height="102"/>
		<text id="XMLID_4_" transform="matrix(1 0 0 1 772.8845 1.7422)" class="st14" style="font-size:48px;">Photo</text>
	</g>
</g>
<g id="text_1_" class="st10">
	<g id="text" class="st11">
		<rect id="XMLID_319_" x="-77.8" y="-326.1" class="st13" width="115.4" height="53.7"/>
		<text id="title_2" transform="matrix(1 0 0 1 -77.7848 -298.1481)" class="st5 st17 st18">about</text>
		<rect id="XMLID_157_" x="-75.8" y="-272.4" class="st13" width="510.3" height="320.9"/>
		<text id="body_2" transform="matrix(1 0 0 1 -75.783 -255.2672)"><tspan x="0" y="0" class="st5 st14 st15">Lorem Ipsum is simply dummy text of the printing and typesetting </tspan><tspan x="0" y="28.8" class="st5 st14 st15">industry. Lorem Ipsum has been the industry&apos;s standard dummy </tspan><tspan x="0" y="57.6" class="st5 st14 st15">text ever since the 1500s, when an unknown printer took a galley </tspan><tspan x="0" y="86.4" class="st5 st14 st15">of type and scrambled it to make a type specimen book. It has sur</tspan><tspan x="501.9" y="86.4" class="st5 st14 st15">-</tspan><tspan x="0" y="115.2" class="st5 st14 st15">vived not only five centuries, but also the leap into electronic type</tspan><tspan x="488.2" y="115.2" class="st5 st14 st15">-</tspan><tspan x="0" y="144" class="st5 st14 st15">setting, remaining essentially unchanged. It was popularised in the </tspan><tspan x="0" y="172.8" class="st5 st14 st15">1960s with the release of Letraset sheets containing Lorem Ipsum </tspan><tspan x="0" y="201.6" class="st5 st14 st15">passages, and more recently with desktop publishing software like </tspan><tspan x="0" y="230.4" class="st5 st14 st15">Aldus PageMaker including versions of Lorem Ipsum.</tspan></text>
		<rect id="XMLID_529_" x="-76.8" y="30.5" class="st13" width="115.4" height="53.7"/>
		<text id="title_1" transform="matrix(1 0 0 1 -76.784 58.4215)" class="st16 st17 st18">contact</text>
		<rect id="XMLID_508_" x="-74.8" y="84.2" class="st13" width="290.3" height="54.3"/>
		<text id="body_1_1_" transform="matrix(1 0 0 1 -74.7822 101.3028)"><tspan x="0" y="0" class="st16 st14 st15">stephanie.khodorkovsky@unlv.edu</tspan><tspan x="0" y="28.8" class="st16 st14 st15">702-406-0846</tspan></text>
	</g>
</g>
</svg>
